<svg width="121" height="25" viewBox="0 0 121 25" fill="#de0101" xmlns="http://www.w3.org/2000/svg">
<path d="M22.7083 14.5843C22.2769 16.6912 21.2045 18.6132 19.638 20.0868C18.0715 21.5604 16.0877 22.5135 13.9583 22.8155V20.7062C15.531 20.4257 16.9902 19.6996 18.1623 18.6142C19.3345 17.5289 20.1704 16.1298 20.5708 14.5833L22.7083 14.5843ZM4.42917 14.5843C4.82522 16.113 5.64695 17.4978 6.79885 18.578C7.95075 19.6582 9.38553 20.3893 10.9365 20.6864V22.801C8.82804 22.4797 6.86883 21.5196 5.32304 20.0502C3.77726 18.5808 2.71924 16.6727 2.29167 14.5833H4.42917V14.5843ZM18.75 11.4583V13.5416H17.7083C16.6393 13.5416 15.6112 13.9525 14.8367 14.6892C14.0621 15.426 13.6003 16.4323 13.5469 17.4999L13.5417 17.7083V18.7499H11.4583V17.7083C11.4583 16.6393 11.0475 15.6111 10.3107 14.8366C9.57395 14.062 8.56767 13.6002 7.5 13.5468L7.29167 13.5416H6.25V11.4583H18.75ZM12.5 2.08325C17.901 2.08325 22.3427 6.19471 22.8646 11.4583H20.7688C20.5146 9.4446 19.5343 7.59291 18.0119 6.25062C16.4895 4.90833 14.5296 4.16771 12.5 4.16771C10.4704 4.16771 8.51049 4.90833 6.9881 6.25062C5.46571 7.59291 4.48545 9.4446 4.23125 11.4583H2.13438C2.65729 6.19471 7.09896 2.08325 12.5 2.08325Z" fill="#de0101"/>
<path d="M110.694 21V6.26001H116.594C117.101 6.26001 117.588 6.32001 118.054 6.44001C118.534 6.56001 118.961 6.78001 119.334 7.10001C119.708 7.42001 120.001 7.87334 120.214 8.46001C120.428 9.03334 120.534 9.78668 120.534 10.72C120.534 11.48 120.454 12.1133 120.294 12.62C120.134 13.1267 119.921 13.5333 119.654 13.84C119.401 14.1333 119.114 14.36 118.794 14.52C118.488 14.6667 118.181 14.78 117.874 14.86L120.814 21H118.774L116.054 15.14C115.854 15.14 115.608 15.14 115.314 15.14C115.034 15.1267 114.734 15.12 114.414 15.12C114.108 15.12 113.801 15.1133 113.494 15.1C113.201 15.0867 112.941 15.08 112.714 15.08V21H110.694ZM112.714 13.52H116.274C116.594 13.52 116.888 13.4867 117.154 13.42C117.421 13.34 117.654 13.2 117.854 13C118.068 12.7867 118.234 12.5 118.354 12.14C118.474 11.7667 118.534 11.2933 118.534 10.72C118.534 10.16 118.474 9.70668 118.354 9.36001C118.234 9.01334 118.068 8.74668 117.854 8.56001C117.641 8.37334 117.401 8.24668 117.134 8.18001C116.868 8.10001 116.581 8.06001 116.274 8.06001H112.714V13.52Z" fill="#de0101"/>
<path d="M96.2597 21L101.18 6.26001H103.74L108.66 21H106.56L105.26 17.14H99.6197L98.3397 21H96.2597ZM100.1 15.32H104.76L102.44 8.02001L100.1 15.32Z" fill="#de0101"/>
<path d="M90.3791 21.1199C89.4991 21.1199 88.7324 21.0199 88.0791 20.8199C87.4257 20.6199 86.8791 20.2599 86.4391 19.7399C85.9991 19.2066 85.6724 18.4466 85.4591 17.4599C85.2457 16.4599 85.1391 15.1666 85.1391 13.5799C85.1391 12.0866 85.2457 10.8532 85.4591 9.87989C85.6857 8.90656 86.0191 8.14656 86.4591 7.59989C86.9124 7.05323 87.4724 6.67323 88.1391 6.45989C88.8057 6.24656 89.5791 6.13989 90.4591 6.13989C90.9524 6.13989 91.4591 6.16656 91.9791 6.21989C92.5124 6.27323 93.0191 6.34656 93.4991 6.43989C93.9924 6.51989 94.4324 6.61323 94.8191 6.71989V8.23989C94.5791 8.19989 94.2524 8.15989 93.8391 8.11989C93.4257 8.06656 92.9591 8.02656 92.4391 7.99989C91.9191 7.95989 91.3791 7.93989 90.8191 7.93989C90.1524 7.93989 89.5857 8.01989 89.1191 8.17989C88.6524 8.32656 88.2724 8.60656 87.9791 9.01989C87.6857 9.41989 87.4724 9.99323 87.3391 10.7399C87.2057 11.4732 87.1391 12.4266 87.1391 13.5999C87.1391 14.7866 87.1991 15.7599 87.3191 16.5199C87.4524 17.2666 87.6591 17.8466 87.9391 18.2599C88.2191 18.6599 88.5924 18.9399 89.0591 19.0999C89.5257 19.2466 90.1057 19.3199 90.7991 19.3199C91.7991 19.3199 92.6191 19.2932 93.2591 19.2399C93.8991 19.1866 94.4191 19.1332 94.8191 19.0799V20.6199C94.4191 20.7132 93.9791 20.7999 93.4991 20.8799C93.0191 20.9599 92.5124 21.0199 91.9791 21.0599C91.4591 21.0999 90.9257 21.1199 90.3791 21.1199Z" fill="#de0101"/>
<path d="M72.6425 21C72.0158 21 71.4625 20.9067 70.9825 20.72C70.5158 20.52 70.1558 20.1933 69.9025 19.74C69.6492 19.2733 69.5225 18.6533 69.5225 17.88V6.26001H71.5425V17.58C71.5425 18.0067 71.6158 18.34 71.7625 18.58C71.9092 18.8067 72.1025 18.96 72.3425 19.04C72.5825 19.12 72.8425 19.16 73.1225 19.16H78.2225V21H72.6425Z" fill="#de0101"/>
<path d="M61.1539 21.1199C60.1939 21.1199 59.3472 21.0266 58.6139 20.8399C57.8939 20.6532 57.2872 20.3066 56.7939 19.7999C56.3139 19.2932 55.9539 18.5466 55.7139 17.5599C55.4739 16.5732 55.3539 15.2799 55.3539 13.6799C55.3539 12.0799 55.4739 10.7866 55.7139 9.79989C55.9539 8.79989 56.3206 8.03989 56.8139 7.51989C57.3072 6.98656 57.9139 6.62656 58.6339 6.43989C59.3539 6.23989 60.1939 6.13989 61.1539 6.13989C62.1406 6.13989 62.9939 6.23989 63.7139 6.43989C64.4472 6.62656 65.0539 6.98656 65.5339 7.51989C66.0139 8.03989 66.3739 8.79989 66.6139 9.79989C66.8539 10.7866 66.9739 12.0799 66.9739 13.6799C66.9739 15.2799 66.8539 16.5732 66.6139 17.5599C66.3739 18.5466 66.0072 19.2932 65.5139 19.7999C65.0339 20.3066 64.4272 20.6532 63.6939 20.8399C62.9739 21.0266 62.1272 21.1199 61.1539 21.1199ZM61.1539 19.3199C61.8472 19.3199 62.4339 19.2466 62.9139 19.0999C63.4072 18.9532 63.8006 18.6866 64.0939 18.2999C64.4006 17.8999 64.6206 17.3332 64.7539 16.5999C64.8872 15.8532 64.9539 14.8799 64.9539 13.6799C64.9539 12.4132 64.8806 11.3999 64.7339 10.6399C64.6006 9.87989 64.3872 9.30656 64.0939 8.91989C63.8006 8.53323 63.4072 8.27323 62.9139 8.13989C62.4339 8.00656 61.8472 7.93989 61.1539 7.93989C60.5006 7.93989 59.9339 8.00656 59.4539 8.13989C58.9739 8.27323 58.5806 8.53323 58.2739 8.91989C57.9672 9.30656 57.7339 9.87989 57.5739 10.6399C57.4272 11.3999 57.3539 12.4132 57.3539 13.6799C57.3539 14.8799 57.4139 15.8532 57.5339 16.5999C57.6672 17.3332 57.8806 17.8999 58.1739 18.2999C58.4806 18.6866 58.8739 18.9532 59.3539 19.0999C59.8472 19.2466 60.4472 19.3199 61.1539 19.3199Z" fill="#de0101"/>
<path d="M47.3453 21.1199C46.3853 21.1199 45.5387 21.0266 44.8053 20.8399C44.0853 20.6532 43.4787 20.3066 42.9853 19.7999C42.5053 19.2932 42.1453 18.5466 41.9053 17.5599C41.6653 16.5732 41.5453 15.2799 41.5453 13.6799C41.5453 12.0799 41.6653 10.7866 41.9053 9.79989C42.1453 8.79989 42.512 8.03989 43.0053 7.51989C43.4987 6.98656 44.1053 6.62656 44.8253 6.43989C45.5453 6.23989 46.3853 6.13989 47.3453 6.13989C48.332 6.13989 49.1853 6.23989 49.9053 6.43989C50.6387 6.62656 51.2453 6.98656 51.7253 7.51989C52.2053 8.03989 52.5653 8.79989 52.8053 9.79989C53.0453 10.7866 53.1653 12.0799 53.1653 13.6799C53.1653 15.2799 53.0453 16.5732 52.8053 17.5599C52.5653 18.5466 52.1987 19.2932 51.7053 19.7999C51.2253 20.3066 50.6187 20.6532 49.8853 20.8399C49.1653 21.0266 48.3187 21.1199 47.3453 21.1199ZM47.3453 19.3199C48.0387 19.3199 48.6253 19.2466 49.1053 19.0999C49.5987 18.9532 49.992 18.6866 50.2853 18.2999C50.592 17.8999 50.812 17.3332 50.9453 16.5999C51.0787 15.8532 51.1453 14.8799 51.1453 13.6799C51.1453 12.4132 51.072 11.3999 50.9253 10.6399C50.792 9.87989 50.5787 9.30656 50.2853 8.91989C49.992 8.53323 49.5987 8.27323 49.1053 8.13989C48.6253 8.00656 48.0387 7.93989 47.3453 7.93989C46.692 7.93989 46.1253 8.00656 45.6453 8.13989C45.1653 8.27323 44.772 8.53323 44.4653 8.91989C44.1587 9.30656 43.9253 9.87989 43.7653 10.6399C43.6187 11.3999 43.5453 12.4132 43.5453 13.6799C43.5453 14.8799 43.6053 15.8532 43.7253 16.5999C43.8587 17.3332 44.072 17.8999 44.3653 18.2999C44.672 18.6866 45.0653 18.9532 45.5453 19.0999C46.0387 19.2466 46.6387 19.3199 47.3453 19.3199Z" fill="#de0101"/>
<path d="M35.34 21.1199C34.46 21.1199 33.6933 21.0199 33.04 20.8199C32.3867 20.6199 31.84 20.2599 31.4 19.7399C30.96 19.2066 30.6333 18.4466 30.42 17.4599C30.2067 16.4599 30.1 15.1666 30.1 13.5799C30.1 12.0866 30.2067 10.8532 30.42 9.87989C30.6467 8.90656 30.98 8.14656 31.42 7.59989C31.8733 7.05323 32.4333 6.67323 33.1 6.45989C33.7667 6.24656 34.54 6.13989 35.42 6.13989C35.9133 6.13989 36.42 6.16656 36.94 6.21989C37.4733 6.27323 37.98 6.34656 38.46 6.43989C38.9533 6.51989 39.3933 6.61323 39.78 6.71989V8.23989C39.54 8.19989 39.2133 8.15989 38.8 8.11989C38.3867 8.06656 37.92 8.02656 37.4 7.99989C36.88 7.95989 36.34 7.93989 35.78 7.93989C35.1133 7.93989 34.5467 8.01989 34.08 8.17989C33.6133 8.32656 33.2333 8.60656 32.94 9.01989C32.6467 9.41989 32.4333 9.99323 32.3 10.7399C32.1667 11.4732 32.1 12.4266 32.1 13.5999C32.1 14.7866 32.16 15.7599 32.28 16.5199C32.4133 17.2666 32.62 17.8466 32.9 18.2599C33.18 18.6599 33.5533 18.9399 34.02 19.0999C34.4867 19.2466 35.0667 19.3199 35.76 19.3199C36.76 19.3199 37.58 19.2932 38.22 19.2399C38.86 19.1866 39.38 19.1332 39.78 19.0799V20.6199C39.38 20.7132 38.94 20.7999 38.46 20.8799C37.98 20.9599 37.4733 21.0199 36.94 21.0599C36.42 21.0999 35.8867 21.1199 35.34 21.1199Z" fill="#de0101"/>
</svg>
