<svg width="118" height="150" viewBox="0 0 118 150" fill="none" xmlns="http://www.w3.org/2000/svg">
<path d="M58.9998 149.683C42.2554 144.711 28.3471 134.569 17.2748 119.258C6.20261 103.947 0.666504 86.6945 0.666504 67.5V22.4333L58.9998 0.641663L117.333 22.4333V67.5C117.333 86.6889 111.797 103.939 100.725 119.25C89.6526 134.561 75.7443 144.7 58.9998 149.683ZM58.9998 140.842C72.4721 136.675 83.722 128.447 92.7498 116.158C101.778 103.869 107.055 90.15 108.583 75H58.9998V9.53333L8.99984 28.125V71.0917C8.99984 72.1694 9.13873 73.4722 9.4165 75H58.9998V140.842Z" fill="url(#paint0_linear_1_271)"/>
<defs>
<linearGradient id="paint0_linear_1_271" x1="58.9998" y1="0.641663" x2="58.9998" y2="149.692" gradientUnits="userSpaceOnUse">
<stop stop-color="#FBFBFB"/>
<stop offset="1" stop-color="#959595"/>
</linearGradient>
</defs>
</svg>
